<?xml version="1.0" encoding="UTF-8"?>
<svg id="Layer_1" xmlns="http://www.w3.org/2000/svg" version="1.1" viewBox="0 0 841.89 595.28">
  <!-- Generator: Adobe Illustrator 30.4.0, SVG Export Plug-In . SVG Version: 2.1.4 Build 226)  -->
  <defs>
    <style>
      .st0 {
        fill: #fff;
      }
    </style>
  </defs>
  <g>
    <path class="st0" d="M199.01,297.87c0-11.59,9.41-21,21-21,5.76,0,11,2.35,14.82,6.18l-9.23,9.18c-1.41-1.41-3.41-2.35-5.59-2.35-4.41,0-8,3.59-8,8s3.59,7.94,8,7.94c2.18,0,4.18-.88,5.59-2.35l9.23,9.24c-3.82,3.76-9.06,6.12-14.82,6.12-11.59,0-21-9.35-21-20.94v-.02Z"/>
    <path class="st0" d="M241.26,317.99l18.06-41.53,18.12,41.53h-12.82l-5.3-14.12-5.24,14.12h-12.82Z"/>
    <path class="st0" d="M289.15,317.99v-28.3h-6.77v-12h25.41v12h-6.71v28.3h-11.94,0Z"/>
    <path class="st0" d="M312.74,317.99l18.06-41.53,18.12,41.53h-12.82l-5.3-14.12-5.24,14.12h-12.82Z"/>
    <path class="st0" d="M356.95,317.99c3.12-2.47,5.06-7.18,5.06-11.06,0-3.06-1-5.06-2.18-7.23-1.35-2.65-2.88-5.59-2.88-10.94,0-3.29,1.29-7.53,3.65-11.06h13.35c-3.12,2.53-5.06,7.18-5.06,11.06,0,3.3,1.12,5.41,2.29,7.65,1.3,2.59,2.77,5.41,2.77,10.53,0,3.35-1.29,7.53-3.65,11.06h-13.35Z"/>
    <path class="st0" d="M392.89,317.99v-28.3h-6.77v-12h25.41v12h-6.71v28.3h-11.94,0Z"/>
    <path class="st0" d="M425.08,317.99v-40.3h15.06c8.29,0,14.94,6.71,14.94,14.94,0,5.06-2.82,9.53-6.94,12.12l11.59,13.24h-16.06l-6.65-7.59v7.59h-11.94ZM437.02,297.87h2.23c2.41,0,4.41-1.94,4.41-4.41s-2-4.41-4.41-4.41h-2.23v8.82Z"/>
    <path class="st0" d="M465.75,297.87c0-11.59,9.41-21,21-21s21,9.41,21,21-9.41,20.94-21,20.94-21-9.35-21-20.94ZM494.69,297.87c0-4.41-3.53-8-7.94-8s-7.94,3.59-7.94,8,3.53,7.94,7.94,7.94,7.94-3.59,7.94-7.94Z"/>
    <path class="st0" d="M519.94,317.99v-40.3h14.18c8.71,0,15.77,7.06,15.77,15.77s-7.06,15.77-15.77,15.77h-2.23v8.77h-11.95ZM531.88,297.87h2.23c2.41,0,4.41-1.94,4.41-4.41s-2-4.41-4.41-4.41h-2.23v8.82Z"/>
    <path class="st0" d="M579.18,317.99v-14.35h-6.76v14.35h-11.94v-40.3h11.94v14h6.76v-14h11.94v40.3h-11.94Z"/>
    <path class="st0" d="M607.01,317.99v-40.3h11.94v40.3h-11.94Z"/>
  </g>
  <path class="st0" d="M631.44,286.61v-7.15h-1.48v-1.77h4.73v1.77h-1.48v7.15h-1.77ZM636.33,286.61v-9.15l3.28,3.85,3.27-3.85v9.15h-1.77v-4.16l-1.51,1.77-1.51-1.77v4.16h-1.77.01Z"/>
</svg>